<?xml version="1.0" encoding="UTF-8"?>
<svg xmlns="http://www.w3.org/2000/svg" viewBox="0 0 25 25" width="25px"
     height="25px">
    <g id="surface24346976">
        <path style=" stroke:none;fill-rule:nonzero;fill:rgb(20.392157%,59.607846%,85.882354%);fill-opacity:1;"
              d="M 12.5 1 C 6.148438 1 1 6.148438 1 12.5 C 1 18.851562 6.148438 24 12.5 24 C 18.851562 24 24 18.851562 24 12.5 C 24 6.148438 18.851562 1 12.5 1 Z M 12.5 5.5 C 13.328125 5.5 14 6.171875 14 7 C 14 7.828125 13.328125 8.5 12.5 8.5 C 11.671875 8.5 11 7.828125 11 7 C 11 6.171875 11.671875 5.5 12.5 5.5 Z M 14.5 19 L 10.5 19 L 10.5 18 L 11.5 18 L 11.5 11.5 L 10.5 11.5 L 10.5 10.5 L 13.5 10.5 L 13.5 18 L 14.5 18 Z M 14.5 19 "/>
    </g>
</svg>
