<?xml version="1.0" encoding="UTF-8"?>
<svg xmlns:xlink="http://www.w3.org/1999/xlink" xmlns="http://www.w3.org/2000/svg" width="25pt" height="25pt"
     viewBox="0 0 25 25" version="1.1">
    <g id="surface1">
        <path style=" stroke:none;fill-rule:nonzero;fill:rgb(30.196078%,29.803922%,30.196078%);fill-opacity:1;"
              d="M 24.265625 9.8125 L 23.15625 9.8125 C 22.894531 8.773438 22.484375 7.785156 21.933594 6.863281 L 22.71875 6.078125 C 23.007812 5.792969 23.007812 5.328125 22.71875 5.042969 L 19.957031 2.28125 C 19.671875 1.992188 19.207031 1.992188 18.921875 2.28125 L 18.136719 3.066406 C 17.214844 2.515625 16.226562 2.105469 15.1875 1.84375 L 15.1875 0.734375 C 15.1875 0.328125 14.859375 0 14.453125 0 L 10.546875 0 C 10.140625 0 9.8125 0.328125 9.8125 0.734375 L 9.8125 1.84375 C 8.773438 2.105469 7.785156 2.515625 6.863281 3.066406 L 6.078125 2.28125 C 5.792969 1.992188 5.328125 1.992188 5.042969 2.28125 L 2.28125 5.042969 C 1.992188 5.328125 1.992188 5.792969 2.28125 6.078125 L 3.066406 6.863281 C 2.515625 7.785156 2.105469 8.773438 1.84375 9.8125 L 0.734375 9.8125 C 0.328125 9.8125 0 10.140625 0 10.546875 L 0 14.453125 C 0 14.859375 0.328125 15.1875 0.734375 15.1875 L 1.84375 15.1875 C 2.105469 16.226562 2.515625 17.214844 3.066406 18.136719 L 2.28125 18.921875 C 1.992188 19.207031 1.992188 19.671875 2.28125 19.957031 L 5.042969 22.71875 C 5.328125 23.007812 5.792969 23.007812 6.078125 22.71875 L 6.863281 21.933594 C 7.785156 22.484375 8.773438 22.894531 9.8125 23.15625 L 9.8125 24.265625 C 9.8125 24.671875 10.140625 25 10.546875 25 L 14.453125 25 C 14.859375 25 15.1875 24.671875 15.1875 24.265625 L 15.1875 23.15625 C 16.226562 22.894531 17.214844 22.484375 18.136719 21.933594 L 18.921875 22.71875 C 19.207031 23.007812 19.671875 23.007812 19.957031 22.71875 L 22.71875 19.957031 C 23.007812 19.671875 23.007812 19.207031 22.71875 18.921875 L 21.933594 18.136719 C 22.484375 17.214844 22.894531 16.226562 23.15625 15.1875 L 24.265625 15.1875 C 24.671875 15.1875 25 14.859375 25 14.453125 L 25 10.546875 C 25 10.140625 24.671875 9.8125 24.265625 9.8125 Z M 24.265625 9.8125 "/>
        <path style=" stroke:none;fill-rule:nonzero;fill:rgb(30.196078%,29.803922%,30.196078%);fill-opacity:1;"
              d="M 24.265625 9.8125 L 23.15625 9.8125 C 22.894531 8.773438 22.484375 7.785156 21.933594 6.863281 L 22.71875 6.078125 C 23.007812 5.792969 23.007812 5.328125 22.71875 5.042969 L 19.957031 2.28125 C 19.671875 1.992188 19.207031 1.992188 18.921875 2.28125 L 18.136719 3.066406 C 17.214844 2.515625 16.226562 2.105469 15.1875 1.84375 L 15.1875 0.734375 C 15.1875 0.328125 14.859375 0 14.453125 0 L 12.5 0 L 12.5 25 L 14.453125 25 C 14.859375 25 15.1875 24.671875 15.1875 24.265625 L 15.1875 23.15625 C 16.226562 22.894531 17.214844 22.484375 18.136719 21.933594 L 18.921875 22.71875 C 19.207031 23.007812 19.671875 23.007812 19.957031 22.71875 L 22.71875 19.957031 C 23.007812 19.671875 23.007812 19.207031 22.71875 18.921875 L 21.933594 18.136719 C 22.484375 17.214844 22.894531 16.226562 23.15625 15.1875 L 24.265625 15.1875 C 24.671875 15.1875 25 14.859375 25 14.453125 L 25 10.546875 C 25 10.140625 24.671875 9.8125 24.265625 9.8125 Z M 24.265625 9.8125 "/>
        <path style=" stroke:none;fill-rule:nonzero;fill:rgb(16.862745%,47.058824%,76.078431%);fill-opacity:1;"
              d="M 19.335938 12.5 C 19.335938 16.273438 16.273438 19.335938 12.5 19.335938 C 8.726562 19.335938 5.664062 16.273438 5.664062 12.5 C 5.664062 8.726562 8.726562 5.664062 12.5 5.664062 C 16.273438 5.664062 19.335938 8.726562 19.335938 12.5 Z M 19.335938 12.5 "/>
        <path style=" stroke:none;fill-rule:nonzero;fill:rgb(16.862745%,47.058824%,76.078431%);fill-opacity:1;"
              d="M 19.335938 12.5 C 19.335938 8.726562 16.273438 5.664062 12.5 5.664062 L 12.5 19.335938 C 16.273438 19.335938 19.335938 16.273438 19.335938 12.5 Z M 19.335938 12.5 "/>
        <path style=" stroke:none;fill-rule:nonzero;fill:rgb(16.862745%,47.058824%,76.078431%);fill-opacity:1;"
              d="M 12.5 20.070312 C 8.328125 20.070312 4.929688 16.671875 4.929688 12.5 C 4.929688 8.328125 8.328125 4.929688 12.5 4.929688 C 16.671875 4.929688 20.070312 8.328125 20.070312 12.5 C 20.070312 16.671875 16.671875 20.070312 12.5 20.070312 Z M 12.5 6.398438 C 9.132812 6.398438 6.398438 9.132812 6.398438 12.5 C 6.398438 15.867188 9.132812 18.601562 12.5 18.601562 C 15.867188 18.601562 18.601562 15.867188 18.601562 12.5 C 18.601562 9.132812 15.867188 6.398438 12.5 6.398438 Z M 12.5 6.398438 "/>
        <path style=" stroke:none;fill-rule:nonzero;fill:rgb(16.862745%,47.058824%,76.078431%);fill-opacity:1;"
              d="M 18.601562 12.5 C 18.601562 15.867188 15.867188 18.601562 12.5 18.601562 L 12.5 20.070312 C 16.671875 20.070312 20.070312 16.671875 20.070312 12.5 C 20.070312 8.328125 16.671875 4.929688 12.5 4.929688 L 12.5 6.398438 C 15.867188 6.398438 18.601562 9.132812 18.601562 12.5 Z M 18.601562 12.5 "/>
        <path style=" stroke:none;fill-rule:nonzero;fill:rgb(100%,100%,100%);fill-opacity:1;"
              d="M 13.179688 8.675781 C 13.027344 8.304688 12.597656 8.125 12.222656 8.28125 C 11.851562 8.433594 11.671875 8.863281 11.828125 9.238281 C 11.984375 9.613281 12.410156 9.789062 12.785156 9.632812 C 13.160156 9.480469 13.335938 9.050781 13.179688 8.675781 Z M 13.179688 8.675781 "/>
        <path style=" stroke:none;fill-rule:nonzero;fill:rgb(100%,100%,100%);fill-opacity:1;"
              d="M 13.234375 8.960938 C 13.234375 8.554688 12.90625 8.226562 12.5 8.226562 L 12.5 9.691406 C 12.90625 9.691406 13.234375 9.363281 13.234375 8.960938 Z M 13.234375 8.960938 "/>
        <path style=" stroke:none;fill-rule:nonzero;fill:rgb(100%,100%,100%);fill-opacity:1;"
              d="M 12.5 16.527344 C 12.09375 16.527344 11.765625 16.199219 11.765625 15.796875 L 11.765625 11.890625 C 11.765625 11.484375 12.09375 11.15625 12.5 11.15625 C 12.90625 11.15625 13.234375 11.484375 13.234375 11.890625 L 13.234375 15.796875 C 13.234375 16.199219 12.90625 16.527344 12.5 16.527344 Z M 12.5 16.527344 "/>
        <path style=" stroke:none;fill-rule:nonzero;fill:rgb(100%,100%,100%);fill-opacity:1;"
              d="M 13.234375 15.796875 L 13.234375 11.890625 C 13.234375 11.484375 12.90625 11.15625 12.5 11.15625 L 12.5 16.527344 C 12.90625 16.527344 13.234375 16.199219 13.234375 15.796875 Z M 13.234375 15.796875 "/>
    </g>
</svg>
