<?xml version="1.0" encoding="UTF-8"?>
<svg viewBox="0 0 60 60" xmlns="http://www.w3.org/2000/svg">
 <path d="m23.518 23.956v-14.301c0-2.0006 0.54704-3.6261 1.6411-4.8764 1.0941-1.2816 2.657-1.9224 4.6889-1.9224 2.0318 0 3.5948 0.64082 4.6889 1.9224 1.1253 1.2504 1.688 2.8758 1.688 4.8764v14.301h14.114c2.0631 0 3.6886 0.56267 4.8764 1.688 1.2191 1.0941 1.8287 2.6414 1.8287 4.642 0 2.0318-0.60956 3.6104-1.8287 4.7358-1.1878 1.1253-2.8133 1.688-4.8764 1.688h-14.114v14.254c0 2.0318-0.56267 3.673-1.688 4.9233-1.1253 1.2504-2.6883 1.8756-4.6889 1.8756s-3.5636-0.62518-4.6889-1.8756c-1.0941-1.2504-1.6411-2.8915-1.6411-4.9233v-14.254h-14.114c-2.0006 0-3.6261-0.60956-4.8764-1.8287-1.2191-1.2504-1.8287-2.7821-1.8287-4.5951 0-2.0006 0.59392-3.5479 1.7818-4.642 1.2191-1.1253 2.8602-1.688 4.9233-1.688h14.114z" fill="#007f00" stroke-width="1.25"/>
</svg>
