<?xml version="1.0" encoding="UTF-8"?>
<svg xmlns:xlink="http://www.w3.org/1999/xlink" xmlns="http://www.w3.org/2000/svg" width="50pt" height="50pt"
     viewBox="0 0 50 50" version="1.1">
    <g id="surface1">
        <path style=" stroke:none;fill-rule:nonzero;fill:rgb(14.509804%,71.764706%,82.745098%);fill-opacity:1;"
              d="M 50 25 C 50 11.191406 38.808594 0 25 0 C 11.191406 0 0 11.191406 0 25 C 0 38.808594 11.191406 50 25 50 C 38.808594 50 50 38.808594 50 25 Z M 50 25 "/>
        <path style=" stroke:none;fill-rule:nonzero;fill:rgb(100%,100%,100%);fill-opacity:1;"
              d="M 13.929688 17.492188 C 13.929688 16.089844 14.378906 14.671875 15.28125 13.230469 C 16.179688 11.792969 17.492188 10.601562 19.21875 9.65625 C 20.949219 8.710938 22.960938 8.238281 25.265625 8.238281 C 27.40625 8.238281 29.296875 8.632812 30.933594 9.421875 C 32.574219 10.210938 33.839844 11.285156 34.730469 12.644531 C 35.625 14.003906 36.070312 15.480469 36.070312 17.074219 C 36.070312 18.328125 35.816406 19.425781 35.308594 20.371094 C 34.796875 21.316406 34.191406 22.132812 33.492188 22.820312 C 32.789062 23.503906 31.53125 24.660156 29.714844 26.285156 C 29.214844 26.742188 28.8125 27.144531 28.507812 27.492188 C 28.207031 27.839844 27.980469 28.15625 27.835938 28.441406 C 27.6875 28.730469 27.570312 29.019531 27.492188 29.308594 C 27.410156 29.59375 27.289062 30.101562 27.125 30.824219 C 26.84375 32.359375 25.964844 33.125 24.492188 33.125 C 23.722656 33.125 23.078125 32.875 22.554688 32.375 C 22.027344 31.871094 21.765625 31.125 21.765625 30.136719 C 21.765625 28.898438 21.957031 27.824219 22.34375 26.914062 C 22.726562 26.007812 23.234375 25.210938 23.871094 24.523438 C 24.503906 23.835938 25.363281 23.023438 26.4375 22.078125 C 27.382812 21.25 28.066406 20.625 28.488281 20.207031 C 28.90625 19.785156 29.261719 19.316406 29.550781 18.800781 C 29.839844 18.285156 29.980469 17.722656 29.980469 17.117188 C 29.980469 15.9375 29.542969 14.941406 28.664062 14.128906 C 27.785156 13.316406 26.652344 12.910156 25.265625 12.910156 C 23.640625 12.910156 22.445312 13.320312 21.679688 14.140625 C 20.910156 14.957031 20.261719 16.164062 19.730469 17.757812 C 19.226562 19.425781 18.277344 20.261719 16.875 20.261719 C 16.046875 20.261719 15.347656 19.96875 14.78125 19.386719 C 14.210938 18.804688 13.929688 18.171875 13.929688 17.492188 Z M 24.734375 41.761719 C 23.832031 41.761719 23.046875 41.46875 22.375 40.886719 C 21.703125 40.304688 21.367188 39.488281 21.367188 38.441406 C 21.367188 37.511719 21.691406 36.726562 22.34375 36.09375 C 22.992188 35.457031 23.789062 35.140625 24.734375 35.140625 C 25.664062 35.140625 26.445312 35.457031 27.082031 36.09375 C 27.714844 36.726562 28.035156 37.511719 28.035156 38.441406 C 28.035156 39.472656 27.703125 40.285156 27.035156 40.875 C 26.371094 41.464844 25.605469 41.761719 24.734375 41.761719 Z M 24.734375 41.761719 "/>
    </g>
</svg>
