<svg fill="#28b351" xmlns="http://www.w3.org/2000/svg" viewBox="0 0 26 26" width="208px" height="208px">
    <path d="M9,10.2c0,0.9-5,4.3-5,0C4,4.4,7.8,0,13.8,0c0.2,0,0.2,0,0,0.1C12.9,0.8,9,2.5,9,10.2z"/>
    <path d="M12.9 10.3c-.1-.2-.3-.3-.4-.3h-12c-.2 0-.4.1-.4.3C0 10.5 0 10.7.1 10.8l6 7.7c.1.1.2.2.4.2s.3-.1.4-.2l6-7.7C13 10.7 13 10.5 12.9 10.3zM17 15.8c0-.9 5-4.3 5 0 0 5.8-3.8 10.2-9.8 10.2-.2 0-.2 0 0-.1C13.1 25.2 17 23.5 17 15.8z"/>
    <path d="M25.9,15.2l-6-7.7c-0.2-0.2-0.6-0.2-0.8,0l-6,7.7c-0.1,0.2-0.1,0.4-0.1,0.5c0.1,0.2,0.3,0.3,0.4,0.3h12c0.2,0,0.4-0.1,0.4-0.3C26,15.5,26,15.3,25.9,15.2z"/>
</svg>