<?xml version="1.0" encoding="iso-8859-1"?>
<!-- Generator: Adobe Illustrator 19.0.0, SVG Export Plug-In . SVG Version: 6.00 Build 0)  -->
<svg xmlns:xlink="http://www.w3.org/1999/xlink" version="1.1" id="Layer_1" xmlns="http://www.w3.org/2000/svg" x="0px"
     y="0px"
     viewBox="0 0 512 512" style="enable-background:new 0 0 512 512;" xml:space="preserve">
<path style="fill:#1BBC86;" d="M509.196,375.828l-161.032-126.8c-4.818-3.787-11.892-0.346-11.892,5.775v84.317H152.991
	c-44.2,0-89.516-12.257-122.984-41.322c-5.242-4.553-13.323,0.085-12.037,6.908c2.275,12.083,6.91,30.283,16.08,48.353
	c23.527,46.374,63.546,69.887,118.941,69.887h181.86v80.497c0,2.783,1.571,5.327,4.061,6.571c2.443,1.227,5.435,1.003,7.693-0.693
	l162.455-121.842c1.826-1.368,2.913-3.508,2.939-5.791C512.026,379.405,510.99,377.241,509.196,375.828z"/>
    <path style="fill:#149362;" d="M509.196,375.828l-20.999-16.534c-153.009,114.755-142.495,107.664-146,107.664
	c-4.031,0-7.346-3.267-7.346-7.348v43.832c0,2.783,1.571,5.327,4.061,6.571c2.443,1.227,5.435,1.003,7.693-0.693L509.06,387.477
	c1.826-1.368,2.913-3.508,2.939-5.791C512.026,379.405,510.99,377.241,509.196,375.828z"/>
    <path style="fill:#E22437;" d="M494.027,207.304c-13.471-71.591-58.442-118.239-135.021-118.239H177.145V8.567
	c0-6.048-6.924-9.503-11.754-5.878L2.936,124.53c-3.853,2.89-3.93,8.665-0.137,11.65
	c173.463,136.586,161.933,128.373,165.58,128.373c4.024,0,7.346-3.262,7.346-7.348v-84.317h183.281
	c44.303,0,89.599,12.317,122.984,41.321C487.245,218.77,495.315,214.115,494.027,207.304z"/>
    <g>
	<path style="fill:#C61A33;" d="M168.379,223.886c-3.639,0,7.076,7.577-146.637-113.458L2.936,124.53
		c-3.853,2.89-3.93,8.665-0.137,11.65l161.033,126.8c4.803,3.779,11.891,0.357,11.891-5.775v-40.668
		C175.724,220.621,172.405,223.886,168.379,223.886z"/>
        <path style="fill:#C61A33;" d="M494.027,207.304c-1.591-8.449-4.342-19.889-8.981-32.18c-4.9-1.21-41.828-42.902-126.041-42.902
		H220.683c-1.895,0.428-4.74,0.665-8.74,0.665c-26.701,0-34.342,14.675-36.218,26.249v13.754h183.281
		c44.303,0,89.599,12.317,122.984,41.321C487.245,218.77,495.315,214.115,494.027,207.304z"/>
</g>
    <path style="fill:#149362;" d="M294.862,379.114h-141.87c-61.406,0-103.074-29.145-124.59-82.355
	c-5.458-2.66-11.544,2.047-10.432,7.947c13.482,71.602,58.442,118.239,135.021,118.239h181.86v-10.42
	C333.515,399.562,326.407,379.114,294.862,379.114z"/>
    <g>
</g>
    <g>
</g>
    <g>
</g>
    <g>
</g>
    <g>
</g>
    <g>
</g>
    <g>
</g>
    <g>
</g>
    <g>
</g>
    <g>
</g>
    <g>
</g>
    <g>
</g>
    <g>
</g>
    <g>
</g>
    <g>
</g>
</svg>
