<?xml version="1.0" encoding="UTF-8" standalone="no"?>
<svg xmlns="http://www.w3.org/2000/svg" viewBox="0 0 64 64"><defs><style>.cls-1{fill:url(#linear-gradient);}</style><linearGradient id="linear-gradient" x1="2" y1="32" x2="62" y2="32" gradientUnits="userSpaceOnUse"><stop offset="0" stop-color="#ffae46"/><stop offset="0.19" stop-color="#ff9755"/><stop offset="0.74" stop-color="#ff5a7d"/><stop offset="1" stop-color="#ff428d"/></linearGradient></defs><g id="Layer_90" data-name="Layer 90"><path class="cls-1" d="M61.41,31.24,32.76,2.59a2,2,0,0,0-2.82,0L13.27,19.25A6.25,6.25,0,0,0,9.06,29.91l5.78,5.78a2.26,2.26,0,0,1,0,3.19L4.13,49.59A7.27,7.27,0,1,0,14.41,59.87L25.12,49.16a2.29,2.29,0,0,1,3.19,0l5.78,5.78a6.25,6.25,0,0,0,8.84,0h0a6.24,6.24,0,0,0,1.81-4.21L61.41,34.06A2,2,0,0,0,61.41,31.24ZM40.11,52.11a2.26,2.26,0,0,1-3.19,0l-5.78-5.78a6.26,6.26,0,0,0-8.85,0L11.58,57A3.33,3.33,0,0,1,7,57a3.21,3.21,0,0,1-1-2.31,3.25,3.25,0,0,1,1-2.31L17.67,41.71a6.26,6.26,0,0,0,0-8.85l-5.78-5.78a2.25,2.25,0,0,1,3.16-3.21L40.13,49A2.26,2.26,0,0,1,40.11,52.11Zm3.22-5.62L43,46.14l0,0-25-25L17.86,21l-.35-.35L31.35,6.83l2.83,2.83-6,8.64,8.64-6,4.86,4.86-3.1,5.57,5.57-3.1,7.55,7.55-6,8.64,8.64-6,2.89,2.89Z"/></g></svg>